<svg width="300" height="312" viewBox="0 0 300 312" fill="none" xmlns="http://www.w3.org/2000/svg">
<path d="M22.136 172.352C23.7071 169.686 25.2733 167.021 26.8443 164.36C26.0588 165.477 24.144 168.123 22.136 172.352Z" fill="#FCF3E4"/>
<path d="M78.7538 268.059C93.2863 271.738 195.799 257.495 200.11 257.206C203.227 257 206.232 255.226 209.291 254.178C215.3 252.12 249.363 239.924 252.505 237.587C258.082 233.437 264.45 226.298 266.463 221.756C268.083 218.091 270.067 214.519 271.039 210.634C273.022 202.711 282.223 185.434 281.855 160.735C279.773 155.262 274.456 147.025 270.312 142.87C277.942 145.105 279.253 153.13 284.03 157.962C288.605 156.33 288.983 154.027 287.24 149.22C282.478 136.074 277.387 130.102 274.132 125.187C272.32 122.458 256.506 81.5403 248.022 68.2914C243.889 61.8384 238.149 56.8652 235.788 49.6528C239.931 51.3432 242.121 54.9298 244.488 58.193C251.228 67.4878 260.498 71.5007 271.687 71.8633C287.555 72.3777 288.478 52.8229 281.864 43.4497C273.174 31.1317 253.261 10.4646 236.961 10.009C222.281 9.59738 210.268 23.4685 198.558 30.4997C195.303 32.4547 193.403 33.8756 190.089 34.15C150.729 37.3887 119.067 40.8479 108.614 42.8715C95.5496 38.0208 83.1774 1.29232 50.391 42.1513C8.43836 94.4217 51.4318 87.1113 52.7525 84.0734C53.8326 82.628 55.2908 81.6726 56.9011 80.918C57.4019 80.2516 61.9875 76.5719 65.9446 70.9764C70.9033 66.2335 74.0799 60.1872 78.0812 54.7142C75.5233 63.1319 70.4467 69.9377 64.1772 75.984C64.4325 77.5813 64.187 79.061 63.4996 80.575C57.3577 94.1179 52.6494 108.391 45.1721 121.258C42.2999 126.201 17.2806 162.665 12.9307 167.928C8.13887 173.724 9.11098 175.253 16.6767 176.718C17.4328 176.865 18.0808 177.605 18.7731 178.065C19.8876 176.174 21.0021 174.283 22.1214 172.391C17.8354 181.436 13.1369 197.693 18.1054 221.678C18.7878 224.975 17.3984 228.292 20.5995 229.302C23.938 230.36 25.9657 227.548 26.761 224.284C29.7461 217.753 32.6575 211.187 35.7653 204.715C36.4624 203.26 36.8355 201.226 39.0596 200.986C36.5852 208.38 32.25 215.063 30.7182 222.814C29.5644 228.65 28.8231 234.471 31.0864 240.228C42.1379 252.424 68.154 265.378 78.7538 268.059ZM26.8443 164.36C26.0588 165.477 24.144 168.123 22.136 172.352C23.7071 169.686 25.2733 167.021 26.8443 164.36ZM26.8592 164.336C26.977 164.14 27.09 163.944 27.2078 163.748C27.2471 163.768 27.1194 163.964 26.8592 164.336ZM87.8808 147.368C85.2492 147.241 82.0678 145.795 82.0678 142.395C82.0727 139.049 84.2624 136.858 87.7728 136.79C91.0868 136.726 92.9475 138.544 93.0948 141.714C92.8837 145.232 90.91 147.52 87.8808 147.368ZM182.911 131.572C182.509 134.374 180.766 135.908 177.506 135.457C174.899 134.702 171.997 133.673 172.439 130.092C172.812 127.098 174.599 124.727 178.139 125.266C181.595 125.795 183.422 128.039 182.911 131.572Z" fill="#FCF0DF"/>
<path d="M56.9996 80.8686L56.8715 80.967C56.8764 80.9522 56.8863 80.9377 56.9011 80.918L56.9011 80.9129C56.9306 80.8932 56.9651 80.8785 56.9996 80.8686Z" fill="#FCF0DF"/>
<path d="M254.41 17.8923C219.095 15.0161 221.564 24.7225 219.655 29.147C218.417 32.0035 217.892 34.9238 220.799 37.2561C221.545 37.8489 222.158 38.5202 221.682 39.4756C221.049 40.7447 219.974 40.2253 218.928 40.0391C214.828 39.3091 210.695 38.04 206.718 37.6578C204.788 37.4766 124.128 43.9834 114.604 45.5807C106.861 46.8743 92.4416 49.084 88.9214 47.2221C84.7336 45.0026 82.7059 40.7202 81.7191 36.1879C81.4588 34.9777 76.9715 31.3568 74.9782 32.6111C29.4808 61.2795 51.795 84.7982 47.1947 86.1849C34.1744 90.1096 29.1764 76.2972 33.1434 69.0848C37.8811 60.4612 49.6397 40.5193 61.2214 29.9212C66.077 25.4771 72.2681 23.8063 79.1562 23.2771C90.9933 22.3707 97.1598 29.9898 103.169 37.7068C106.694 42.2342 110.003 43.3268 115.816 41.6511C117.019 41.3033 141.16 37.6823 152.069 36.6191C164.662 35.3893 184.639 36.0262 196.447 30.8913C206.737 26.4178 212.958 17.3533 222.821 13.1101C226.489 11.5275 241.227 5.20197 254.41 17.8923Z" fill="#FBEDD7"/>
<path d="M274.603 217.199C272.104 223.711 270.179 227.866 271.284 215.033C271.873 208.213 263.09 194.827 259.692 187.703C258.048 184.243 264.042 182.46 265.569 186.223C268.152 192.588 264.744 160.088 273.037 180.044C274.495 183.548 277.907 155.987 278.501 154.727C283.43 162.111 284 169.27 280.637 179.216C280.077 180.877 283.858 187.32 284.182 188.139C287.427 196.39 278.668 206.616 274.603 217.199Z" fill="#FBEBD2"/>
<path d="M46.9443 118.082C42.1329 130.797 39.8646 131.022 36.8256 138.563C30.9979 153.012 27.512 166.82 26.535 169.578C26.1128 170.764 25.6709 162.013 26.1815 157.692C26.4663 155.242 27.7722 149.024 27.949 147.089C24.5123 146.682 18.8269 151.567 15.9548 154.747C14.0499 156.854 15.4049 150.21 17.4277 147.618C18.3998 146.373 21.5076 142.463 22.8184 141.64C30.3792 135.158 32.7702 135.506 38.3917 128.626C39.8695 126.818 42.1672 123.663 46.9443 118.082Z" fill="#FBEBD2"/>
<path d="M235.788 49.6573C239.931 51.3477 242.126 54.9343 244.492 58.1976C251.233 67.4924 260.503 71.5003 271.687 71.8678C273.68 71.9315 275.541 71.5983 277.234 70.5008C277.338 74.94 255.676 73.47 248.881 66.3654C247.193 64.6064 238.149 56.8697 235.788 49.6573Z" fill="#17110E"/>
<path d="M18.7729 178.06C21.5812 173.288 24.3944 168.52 27.2027 163.748C27.6299 163.963 28.0521 164.179 28.4792 164.395C26.6676 168.246 24.9296 172.141 23.0197 175.948C19.2443 183.474 17.3295 191.407 17.4277 199.834C17.4572 202.127 17.6584 204.352 18.7877 206.4C15.5866 206.635 14.7765 204.793 14.4328 201.985C13.4018 193.528 16.5882 185.895 18.7729 178.06Z" fill="#332B25"/>
<path d="M279.748 157.216C277.195 151.949 274.456 147.03 270.312 142.875C277.941 145.114 281.265 151.768 284.029 157.966C287.535 165.82 290.834 173.748 289.808 182.715C287.363 175.737 280.519 158.809 279.748 157.216Z" fill="#332B25"/>
<path d="M39.0594 200.981C36.585 208.375 32.2547 215.058 30.718 222.809C29.5643 228.645 28.8229 234.466 31.0862 240.223C27.6151 237.665 27.0407 233.99 27.0407 230.041C27.0407 228.121 27.6299 226.156 26.7609 224.279C29.7459 217.748 32.6573 211.182 35.77 204.71C36.4623 203.254 36.8354 201.216 39.0594 200.981Z" fill="#332B25"/>
<path d="M44.2489 226.518C40.9447 237.67 40.552 248.729 45.3094 259.621C42.5944 262.605 42.344 259.719 41.9119 258.073C40.8269 253.967 39.9383 249.812 38.9662 245.671C39.2607 239.179 39.9235 232.746 42.1329 226.567C42.7171 226.587 43.3063 226.607 43.8905 226.626L44.2489 226.518Z" fill="#332B25"/>
<path d="M52.1976 84.3916C52.3988 80.7168 62.1592 74.6068 65.5075 71.3778C69.2634 67.752 73.957 60.3485 78.081 54.7089C75.5231 63.1267 70.4466 69.9324 64.177 75.9787C62.4734 77.2918 53.9012 83.0735 52.1976 84.3916Z" fill="#332B25"/>
<path d="M279.287 195.542C279.635 198.409 280.465 207.341 280.347 210.212C280.303 211.28 280.21 217.273 278.737 215.822C277.22 214.328 278.599 196.924 275.801 189.677C275.575 189.099 275.064 188.335 275.496 187.732C275.654 187.511 276.41 187.727 276.817 188.246C277.627 189.285 279.017 193.303 279.287 195.542Z" fill="#332B25"/>
<path d="M254.253 221.834C256.295 225.475 255.082 229.223 254.822 231.315C254.415 234.559 251.503 239.41 251.503 239.41C251.464 239.076 254.282 227.366 254.253 221.834Z" fill="#332B25"/>
<path d="M269.993 133.002C273.636 131.738 276.13 135.912 279.694 135.04C281.123 136.246 280.553 137.897 280.676 139.396C275.845 139.376 271.397 138.725 269.993 133.002Z" fill="#FCF0DF"/>
<path d="M51.741 259.459C50.4006 255.897 48.8492 252.369 50.489 248.263C50.0717 253.923 55.4821 257.578 55.1286 263.193C53.9994 261.948 52.8702 260.704 51.741 259.459Z" fill="#332B25"/>
<path d="M238.65 240.291C238.149 242.707 236.607 244.108 235.238 245.206C233.033 246.975 231.069 249.018 227.48 248.278C229.272 246.333 234.776 244.422 237.82 235.602C239.588 230.482 241.203 229.894 238.65 240.291Z" fill="#4C424B"/>
<path d="M93.8998 265.452C94.214 266.525 94.5233 267.593 94.8375 268.666C91.8181 266.613 88.4305 266.098 84.9201 266.583C75.641 267.872 66.8675 263.124 57.5834 264.388C55.8798 264.619 54.4805 263.796 54.4658 261.713C54.8193 256.098 49.4089 252.443 49.8262 246.784C48.1864 250.89 49.7378 254.417 51.0782 257.98C48.9327 258.033 46.7872 258.087 44.6466 258.141C39.8892 247.249 40.2819 236.19 43.5861 225.039C48.157 225.088 50.2386 229.61 52.065 231.977C54.9273 235.686 58.5801 235.823 61.8597 237.234C66.4698 239.214 75.3464 235.99 78.356 231.996C79.2004 230.879 79.9172 229.39 81.0612 228.826C84.4979 227.141 85.4062 224.465 85.0527 220.962C84.8072 218.512 85.146 215.651 88.1752 216.033C90.6938 216.351 93.0161 218.326 92.0145 221.77C91.823 222.432 91.4254 223.471 91.7101 223.76C95.466 227.572 97.4004 226.509 94.8375 233.559C94.052 235.715 92.4858 236.156 92.0047 238.297C90.1243 246.671 90.3403 255.216 91.6512 263.423C91.8328 264.55 92.805 265.158 93.8998 265.452Z" fill="#FBEBD2"/>
<path d="M93.0013 263.604C91.7199 258.176 90.8558 252.678 90.5809 247.205C90.306 241.781 89.2946 233.584 95.8195 231.394C100.626 229.782 104.279 233.54 107.617 236.357C111.378 239.532 115.07 242.795 118.718 246.103C120.598 247.808 122.464 249.527 124.33 251.242C125.582 252.394 127.074 254.413 128.787 254.814C129.833 255.059 130.913 254.702 131.935 254.354C135.052 253.295 138.234 252.33 141.508 251.894C143.187 251.669 144.886 251.571 146.575 251.698C147.999 251.801 149.771 252.585 151.185 252.315C153.714 251.83 157.028 246.068 158.559 244.231C161.481 240.723 164.426 237.229 167.514 233.858C171.501 229.502 177.02 222.652 183.098 221.3C191.439 219.448 190.757 233.265 190.491 237.886C189.834 249.371 190.192 260.978 190.536 272.468C190.639 275.903 191.459 279.318 190.982 282.762C190.806 284.041 190.433 285.34 189.583 286.315C187.349 288.887 182.955 288.73 179.995 287.839C172.812 285.673 165.703 283.066 160.175 277.853C158.309 276.089 156.021 274.791 153.404 274.697C150.316 274.595 147.459 276.241 144.385 276.329C140.821 276.437 137.242 276.383 133.677 276.407C131.939 276.417 130.049 276.104 129.558 278.519C124.806 283.728 122.439 290.416 118.541 296.193C117.014 298.451 114.859 301.96 111.746 301.994C108.29 302.033 106.027 298.069 104.721 295.423C99.7324 285.32 95.5936 274.585 93.0013 263.604Z" fill="#2667E0"/>
<path d="M125.881 203.411C126.397 202.794 126.912 202.172 127.428 201.554C132.121 196.899 129.617 191.363 129.151 186.154C128.994 184.39 126.956 184.768 125.621 184.782C120.623 184.831 115.929 183.503 111.295 181.838C105.889 179.589 103.611 177.996 101.637 175.546C95.736 168.241 97.1549 156.82 103.424 152.077C115.266 143.115 128.679 137.691 143.865 142.63C158.167 147.28 161.584 167.266 150.051 177.06C144.754 181.558 139.014 185.165 131.007 185.272C133.751 188.246 132.553 191.965 134.635 194.67C134.654 194.993 134.689 195.317 134.743 195.635C134.728 197.09 134.708 198.546 134.694 200.001C131.64 198.472 131.777 201.628 130.859 202.823C126.73 208.198 121.683 209.487 116.823 205.773C119.764 204.122 123.735 206.763 125.881 203.411Z" fill="#17110E"/>
<path d="M103.316 175.492C101.544 173.493 101.377 171.974 101.102 170.22C100.444 166.036 99.7324 161.896 103.783 156.775C103.366 169.745 107.632 178.128 120.996 179.344C117.535 181.642 115.021 180.872 110.794 180.368C106.758 179.515 105.432 177.883 103.316 175.492Z" fill="#332B25"/>
<path d="M134.694 199.996C134.708 198.541 134.728 197.086 134.743 195.63C136.147 196.684 137.556 197.737 138.96 198.791C147.022 203.578 153.311 202.916 161.093 196.512C161.927 195.826 162.605 194.023 163.999 195.302C165.232 196.434 163.896 197.571 163.248 198.502C157.347 206.988 143.232 207.708 134.694 199.996Z" fill="#332B25"/>
<path d="M93.0946 141.719C92.8835 145.237 90.9098 147.525 87.8806 147.373C85.2441 147.241 82.0629 145.795 82.0678 142.395C82.0727 139.048 84.2622 136.858 87.7726 136.794C91.0866 136.731 92.9473 138.543 93.0946 141.719Z" fill="#17110E"/>
<path d="M177.506 135.462C174.899 134.702 171.997 133.678 172.439 130.096C172.812 127.098 174.599 124.726 178.139 125.27C181.595 125.799 183.422 128.043 182.916 131.576C182.508 134.379 180.766 135.907 177.506 135.462Z" fill="#17110E"/>
<path d="M211.347 178.168C210.675 179.01 209.261 179.241 208.343 178.996C206.723 178.565 205.613 176.943 205.279 174.9C204.99 173.131 205.206 171.303 205.314 169.505C205.353 168.878 205.377 168.236 205.564 167.653C205.996 166.286 207.714 165.517 208.22 167.231C208.927 169.632 208.873 172.014 210.272 174.057C210.685 174.664 211.176 175.203 211.47 175.914C211.888 176.913 211.755 177.653 211.347 178.168Z" fill="#17110E"/>
<path d="M217.401 169.75C218.687 169.059 221.451 171.117 222.1 172.479C222.684 173.699 222.959 175.85 222.075 177.026C220.676 178.893 219.277 176.507 218.55 175.081C217.951 173.88 215.82 170.598 217.401 169.75Z" fill="#332B25"/>
<path d="M142.181 155.016C140.453 154.654 140.011 153.424 140.129 151.91C140.256 150.283 141.405 150.004 142.755 150.195C144.12 150.391 145.082 151.209 145.078 152.576C145.073 154.35 143.531 154.624 142.181 155.016Z" fill="#332B25"/>
</svg>
