<svg width="250" height="250" viewBox="0 0 250 250" fill="none" xmlns="http://www.w3.org/2000/svg">
<path d="M29.6267 145.587C29.6267 146.195 29.6267 146.799 29.6196 147.408C31.6816 148.334 33.7648 149.172 35.8798 149.929C33.7577 148.62 31.671 147.181 29.6267 145.587Z" fill="#FCF0DA"/>
<path d="M201.355 229.328C178.97 233.419 97.9513 237.492 86.8421 237.5C70.1199 237.524 33.8424 236.552 30.6274 234.685C30.2065 228.798 29.959 218.961 29.7963 213.052C29.1809 191.179 29.4532 168.609 29.6159 147.404C29.6159 147.34 29.5062 147.358 29.4532 147.333C29.6159 130.584 33.1881 90.9317 34.3234 81.2115C35.3456 72.4848 36.7851 63.7935 38.122 55.1128C39.8197 44.0701 40.1203 30.5593 45.514 20.6339C46.3275 19.1347 47.3249 17.6814 48.7326 16.7161C50.745 15.3336 53.3835 15.1214 55.778 15.6023C61.306 16.7126 66.7316 20.2591 71.1491 23.6359C73.8017 25.662 76.2952 27.8932 78.6543 30.2552C79.5597 31.1604 85.0277 38.4161 85.7563 38.31C91.3728 37.5003 129.199 34.4594 133.274 34.0245C134.045 34.0952 152.175 5.26679 165.926 14.2268C172.833 18.721 187.331 103.194 187.766 106.274C188.318 110.181 196.93 197.805 201.355 229.328Z" fill="#FCF0DA"/>
<path d="M137.271 86.0769C146.852 86.1724 153.958 93.078 153.908 102.243C153.851 112.84 146.742 120.467 137.034 120.347C128.867 120.248 122.607 112.225 122.713 101.999C122.812 92.3143 128.591 85.992 137.271 86.0769Z" fill="#F9B283"/>
<path d="M48.135 102.653C48.326 100.397 47.951 98.2086 48.7574 96.0517C51.4454 88.8808 55.145 86.1829 61.2425 87.1129C71.5524 88.6864 75.4642 93.3856 76.1645 101.062C76.8153 108.159 72.4932 114.987 66.7176 117.296C61.5891 119.346 54.6321 117.391 50.4657 112.858C47.6893 109.838 48.3083 106.14 48.135 102.653Z" fill="#F9B283"/>
<path d="M106.122 106.419C106.281 106.005 106.886 106.02 107.016 106.444C107.773 108.926 106.348 112.359 104.049 113.572C103.946 113.625 103.847 113.685 103.741 113.721C99.8083 115.121 98.2556 111.737 92.2748 115.457C89.555 116.511 87.1039 114 86.3895 111.373C86.2091 110.708 85.7847 109.63 86.9731 109.411C87.9245 109.234 87.8926 110.245 88.0907 110.839C88.8759 113.212 90.2234 114.686 92.9185 113.724C94.3332 113.222 95.1007 112.14 94.9769 110.524C94.8744 109.163 94.8921 107.795 94.8036 106.433C94.4393 100.804 95.4403 101.554 90.4922 99.1988C88.1721 98.0956 85.5371 95.1678 86.0393 89.9311C86.3506 86.6745 89.8733 85.49 94.7011 85.3839C101.096 85.2424 105.404 83.7185 104.654 90.7337C103.999 96.8686 100.834 99.4463 97.9161 99.9059C95.7232 100.04 95.7515 100.779 96.0415 102.342C96.4341 104.474 96.8762 106.61 97.0531 108.763C97.1981 110.542 97.81 111.818 99.4935 112.519C101.223 113.236 103.19 112.059 103.886 111.207C105.053 109.785 105.393 108.311 106.122 106.419Z" fill="#20160F"/>
<path d="M129.345 81.756C126.101 81.9257 125.108 80.2779 125.207 77.9195C125.288 75.8969 126.034 73.6551 128.468 74.0406C130.756 74.4012 132.821 75.9995 132.832 78.7221C132.843 81.215 131.025 81.8726 129.345 81.756Z" fill="#20160F"/>
<path d="M70.3888 73.8886C73.1369 74.2386 74.5516 75.8687 74.5976 78.2767C74.6365 80.4442 73.3067 81.8798 70.9511 81.8479C68.3692 81.8126 67.241 80.1259 67.2657 77.8417C67.287 75.8298 68.1004 74.0618 70.3888 73.8886Z" fill="#20160F"/>
<path d="M29.6267 145.587C31.671 147.181 33.7577 148.62 35.8798 149.925C33.7648 149.172 31.6781 148.33 29.6196 147.404C29.6267 146.799 29.6267 146.191 29.6267 145.587Z" fill="#FCF0DA"/>
<path d="M192.028 147.142C191.972 146.598 191.915 146.053 191.859 145.516C189.22 145.498 186.9 145.47 185.213 145.608C185.216 145.746 185.22 145.884 185.223 146.021C187.869 146.524 191.07 147.019 191.816 147.114C191.883 147.125 191.958 147.135 192.028 147.142Z" fill="#FAEDCE"/>
<path d="M186.26 162.301C186.999 169.974 188.021 177.622 189.096 185.263C190.09 192.3 191.123 199.333 191.965 206.39C192.375 209.841 192.743 213.296 193.04 216.758C193.192 218.508 193.73 221.043 193.864 223.335C193.924 224.339 193.149 225.194 192.145 225.244C191.218 225.29 188.18 227.132 186.705 227.288C186.705 227.288 167.525 229.505 160.278 229.915C153.335 230.311 142.244 231.407 135.311 231.495C128.383 231.584 117.351 234.292 109.991 236.619C138.65 235.212 184.346 232.326 200.86 229.42C201.118 229.377 201.355 229.331 201.355 229.331C199.318 214.604 196.379 188.17 193.772 163.715C191.392 163.415 188.873 162.962 186.26 162.301Z" fill="#FAEDCE"/>
<path d="M192.028 147.142C191.972 146.598 191.915 146.053 191.859 145.516C189.22 145.498 186.9 145.47 185.213 145.608C185.216 145.746 185.22 145.884 185.223 146.021C187.869 146.524 191.07 147.019 191.816 147.114C191.883 147.125 191.958 147.135 192.028 147.142Z" fill="#FAE4BE"/>
<path d="M186.26 162.301C186.999 169.974 188.021 177.622 189.096 185.263C190.09 192.3 191.123 199.333 191.965 206.39C192.375 209.841 192.743 213.296 193.04 216.758C193.192 218.508 193.73 221.043 193.864 223.335C193.924 224.339 193.149 225.194 192.145 225.244C191.218 225.29 188.18 227.132 186.705 227.288C186.705 227.288 167.525 229.505 160.278 229.915C153.335 230.311 142.244 231.407 135.311 231.495C128.383 231.584 117.351 234.292 109.991 236.619C138.65 235.212 184.346 232.326 200.86 229.42C201.118 229.377 201.355 229.331 201.355 229.331C199.318 214.604 196.379 188.17 193.772 163.715C191.392 163.415 188.873 162.962 186.26 162.301Z" fill="#FAEDCE"/>
<path d="M29.4499 147.337C38.1647 151.262 47.3393 153.557 56.6659 155.558C65.745 157.506 74.8206 159.288 84.1048 159.186C95.2565 159.062 106.415 158.655 117.461 156.827C119.59 156.474 126.908 154.84 126.554 152.114C125.723 145.717 121.111 140.767 125.394 135.803C129.751 130.753 136.931 132.221 143.053 132.995C148.525 133.685 155.351 138.624 156.925 136.938C159.157 134.537 165.611 130.067 170.213 130.743C177.166 131.16 175.907 133.437 178.723 122.688C184.109 102.137 195.006 105.871 198.465 108.396C205.397 113.456 215.255 126.981 214.806 137.196C214.731 138.861 214.77 141.796 212.408 142.924C204.011 146.937 188.827 144.858 183.936 145.77C186.709 146.35 190.946 147.004 191.82 147.121C201.107 148.345 222.06 149.458 223.11 149.932C227.722 152.011 228.341 156.396 224.387 159.755C222.162 161.647 212.294 164.101 203.647 164.235C197.662 164.327 189.337 163.797 180.445 160.501C180.82 165.667 180.498 176.19 179.851 182.046C178.815 191.373 177.106 197.72 174.011 202.041C171.744 205.209 167.893 204.124 164.961 201.458C162.771 199.467 158.057 198.792 157.954 188.173C157.883 180.999 157.982 172.697 159.288 166.717C158.4 167.347 156.09 169.822 153.919 171.827C144.146 180.843 139.265 179.853 134.155 170.66C133.157 169.864 127.254 173.085 125.978 173.577C116.421 177.272 96.2822 179.882 77.9436 178.248C63.1985 176.933 31.4977 167.789 28.6682 166.06C24.8095 163.701 21.7714 159.256 23.4938 154.034C24.4948 150.961 24.9475 147.323 29.4499 147.337Z" fill="#BC1515"/>
<path d="M140.716 94.9132C134.618 95.0051 128.538 95.6239 122.547 96.7519C121.564 96.9357 121.981 98.435 122.961 98.2511C128.821 97.1514 134.756 96.5609 140.719 96.469C141.717 96.4548 141.72 94.899 140.716 94.9132Z" fill="#20160F"/>
<path d="M139.983 100.988C134.339 100.857 128.69 100.899 123.045 101.119C122.048 101.158 122.041 102.713 123.045 102.674C128.687 102.455 134.335 102.413 139.983 102.544C140.988 102.568 140.984 101.013 139.983 100.988Z" fill="#20160F"/>
<path d="M142.827 109.442C136.241 108.053 129.588 107.006 122.897 106.288C121.903 106.182 121.91 107.738 122.897 107.844C129.451 108.544 135.962 109.584 142.413 110.942C143.389 111.147 143.807 109.647 142.827 109.442Z" fill="#20160F"/>
<path d="M65.5326 97.261C60.1495 96.6281 54.7239 96.5185 49.3196 96.9357C48.3293 97.0135 48.3187 98.5693 49.3196 98.4915C54.7239 98.0743 60.1495 98.1839 65.5326 98.8168C66.5229 98.93 66.5158 97.3742 65.5326 97.261Z" fill="#20160F"/>
<path d="M65.522 101.967C60.5103 102.13 55.5163 102.65 50.5718 103.509C49.5885 103.679 50.0059 105.178 50.9856 105.008C55.7922 104.174 60.6447 103.682 65.522 103.523C66.5194 103.488 66.5265 101.936 65.522 101.967Z" fill="#20160F"/>
<path d="M65.0233 106.847C58.7277 108.24 52.5735 110.192 46.6281 112.688C45.7191 113.07 46.1188 114.576 47.0419 114.188C52.9874 111.695 59.1415 109.739 65.4371 108.346C66.4168 108.131 66.003 106.631 65.0233 106.847Z" fill="#20160F"/>
<path d="M127.873 35.8808C122.932 40.4457 109.906 44.4837 99.8048 45.8734C82.2479 48.2884 75.6552 47.3302 73.2395 46.8988C71.8601 46.6513 69.5683 45.3147 69.6602 43.7129C69.7592 42.0758 70.9618 41.1352 72.3977 40.5589C74.8205 39.5865 79.0647 38.3878 83.7439 38.013C83.9562 37.9953 84.1365 37.868 84.1471 37.6559C84.2108 36.2415 84.4513 31.2452 84.7343 28.4554C85.0172 25.4781 85.1162 22.4054 85.5796 19.5236C86.103 16.2494 87.1464 15.4326 87.7158 15.0082C88.9643 14.0818 103.469 10.454 108.392 14.4743C112.063 17.4728 112.881 28.4801 114.868 31.4114C114.939 31.5175 115.36 32.0726 115.462 32.1469C115.724 32.3308 115.699 32.8505 118.96 31.666C122.281 30.4567 127.099 30.0077 128.556 32.55C129.125 33.533 128.609 35.2019 127.873 35.8808Z" fill="#BC1515"/>
<path d="M106.15 15.1709C107.543 15.8569 108.654 16.7196 109.404 18.1093C110.097 19.3893 110.546 20.8107 111.031 22.1756C112.042 25.0397 113.008 27.9144 114.429 30.5982C112.739 26.8359 111.781 17.243 108.392 14.4743C103.469 10.454 88.9643 14.0818 87.7158 15.0082C87.3551 15.277 86.7996 15.7084 86.3115 16.8257C86.4848 16.7868 85.9578 14.9658 96.2324 14.5061C99.7975 14.347 104.399 14.3011 106.153 15.1674L106.15 15.1709Z" fill="#A81818"/>
<path d="M187.066 108.297C191.271 108.445 197.889 107.844 202.755 114.555C205.38 118.176 216.464 128.282 212.408 142.924C214.77 141.796 214.731 138.861 214.806 137.196C215.255 126.981 205.397 113.456 198.465 108.396C196.347 106.85 191.441 104.853 186.716 108.254C186.825 108.279 186.942 108.293 187.066 108.3V108.297Z" fill="#A81818"/>
<path d="M225.925 158.09C228.04 155.063 226.986 151.683 223.106 149.936C222.657 149.734 218.593 149.416 213.359 149.024C213.553 149.345 219.47 151.198 221.982 152.156C223.244 152.637 224.249 153.267 225.048 154.384C225.925 155.615 225.95 156.711 225.922 158.093L225.925 158.09Z" fill="#A81818"/>
</svg>
