<svg width="134" height="100" viewBox="0 0 134 100" fill="none" xmlns="http://www.w3.org/2000/svg">
<g id="LOGO">
<path id="Vector" d="M36.8389 91.7158C33.2853 92.8709 29.3633 92.6776 26.077 91.1833C24.3893 90.416 21.0947 88.6056 18.0055 85.0918C13.9534 80.4839 11.5264 74.5131 10.7907 67.3449C9.83094 57.9916 10.5021 50.7397 12.9056 44.5188C17.0915 33.6818 25.494 29.4866 30.1285 27.9518L30.4366 27.8517C34.5376 26.5187 37.9017 25.9045 42.9515 26.714C46.5145 27.2859 49.6068 29.0483 52.1397 31.9551C52.8303 32.7479 54.3816 35.0905 54.7463 36.3893C54.8253 36.6702 54.9928 36.7437 55.6464 36.7789C60.0413 37.0256 60.5249 37.175 61.9601 37.6202C62.1881 37.6903 62.4412 37.7685 62.7411 37.8578C66.0704 38.8346 67.474 40.6972 68.7711 43.5833C71.057 48.672 68.476 52.7435 66.7334 54.717C64.8504 56.852 62.3704 59.0754 57.0414 60.8785C56.8249 60.9509 56.6102 61.0227 56.395 61.0927C51.5517 62.6669 47.6767 63.1488 43.8287 62.6594C43.5954 62.6296 43.3635 62.5852 43.1391 62.5261C42.9504 62.4758 42.7776 62.4365 42.6239 62.3992C41.5036 62.1338 40.9756 61.9359 41.242 60.3569C41.3985 59.4309 42.0595 58.1947 43.4048 57.7574C43.8149 57.6241 44.2605 57.5747 44.7323 57.6122C45.124 57.6433 45.5199 57.6872 45.9053 57.7304C46.88 57.838 47.8017 57.9405 48.6723 57.8544C51.464 57.5745 53.6932 57.1423 55.6844 56.4951C58.1097 55.7068 60.2014 54.5863 62.0816 53.0675C64.249 51.3153 66.1415 48.0544 65.5608 45.2136C65.1752 43.3267 63.7034 41.9736 61.3065 41.3029C59.8554 40.8973 58.2951 40.9699 56.7896 41.041C54.805 41.1337 52.9296 41.2215 51.7606 40.0867C51.1486 39.4917 50.8038 38.6392 50.405 37.6521C49.3767 35.1071 48.0992 31.9405 41.3634 31.082C38.3729 30.6997 34.5637 31.3774 33.1886 31.8243L33.0958 31.8545C24.5996 34.7765 21.4248 39.1547 18.8122 45.7299C15.9685 52.8879 15.7334 62.1504 18.1831 70.5078C19.2801 74.2488 22.3512 81.2609 26.9085 83.8123C28.8552 84.9034 31.8084 85.7832 34.2616 84.9858C37.1193 84.057 38.7389 81.0168 38.9467 76.1897C39.0986 72.6803 34.9873 62.3736 33.4394 58.4949C33.0088 57.4165 32.8342 56.9738 32.7975 56.8294C32.5927 56.0289 32.3177 55.5173 32.0958 55.1061C31.7379 54.4407 31.455 53.9174 32.0389 53.0312C32.3384 52.5764 32.7932 52.2337 33.3184 52.063C34.044 51.8271 34.854 51.9334 35.6009 52.3627C36.7619 53.0311 37.6228 54.0447 38.3095 55.5515C40.8925 61.2197 43.3323 66.7944 44.7944 72.6686C46.2736 78.6144 45.249 83.9648 41.7488 88.5727C40.7404 89.9015 38.9982 91.018 36.8438 91.7183L36.8389 91.7158Z" fill="#22355C"/>
<path id="Vector_2" d="M60.5932 83.9948C57.2438 85.0835 54.0945 84.7934 51.952 83.2013C50.291 81.9666 49.1969 79.8125 49.1631 77.7138C49.1436 76.5241 49.5746 72.39 55.8844 69.1289C56.5116 68.8052 57.2341 68.5095 58.0321 68.2501C60.1011 67.5776 62.3137 67.2645 63.7655 67.4201C63.647 67.2637 63.4924 67.0784 63.3126 66.885C62.5886 66.1031 61.1244 65.9475 59.4896 66.4789C59.2706 66.55 59.0497 66.634 58.8317 66.7272C56.9851 67.5224 56.2287 68.219 55.6218 68.7818C55.1829 69.1863 54.8044 69.5368 54.1809 69.7395C53.7912 69.8661 53.3387 69.9259 52.7537 69.9313L52.7272 69.9317L52.7013 69.928C51.5361 69.7768 50.7923 69.4073 50.4914 68.8351C50.3512 68.5679 50.2461 68.131 50.54 67.5644C50.7797 67.1027 52.0123 66.0787 52.5704 65.6557C53.7722 64.7452 55.0887 64.0046 56.4834 63.4538C56.9922 63.2519 57.4569 63.0846 57.9023 62.9399C59.9583 62.2716 61.7215 62.0782 63.7972 62.2908C65.6629 62.4824 67.2695 63.7389 68.205 65.7395C68.5744 66.5291 69.0147 68.0226 69.48 69.6054C70.0107 71.4086 70.8895 74.3901 71.3781 74.814C72.0295 74.5393 72.0786 74.097 72.178 72.2819C72.23 71.3309 72.3006 70.0267 72.5347 68.2978C72.5561 68.1365 72.6022 67.7987 72.8991 67.7022C73.016 67.6642 73.1459 67.6788 73.2525 67.7416C73.587 67.9375 73.8165 68.6751 74.6834 73.1854C74.7389 73.476 74.7908 73.7494 74.8406 73.9972L74.8981 74.0354C75.0696 74.1462 75.0801 74.2544 75.1209 74.7082C75.1879 75.4255 75.2094 75.6683 74.8809 75.775L74.8345 75.7901C74.4823 77.326 73.8214 78.2596 72.8639 78.5708C72.6839 78.6293 72.4924 78.6652 72.2969 78.6759C70.7709 78.7658 70.4647 78.5811 69.5328 77.8667C69.3415 77.7197 69.125 77.5525 68.854 77.3563C68.6558 77.2136 68.5506 77.193 68.5228 77.202C68.4226 77.2346 68.2537 77.523 68.1175 77.7541L68.0365 77.8901C66.7745 80.0039 65.1778 81.6498 63.2899 82.7853C62.4934 83.2635 61.5612 83.6842 60.5944 83.9985L60.5932 83.9948ZM60.1921 71.3796C57.455 72.2693 55.1008 74.8294 54.8315 77.2074C54.741 78.0084 54.9866 78.6819 55.5382 79.1544C56.3451 79.8444 57.7216 80.0204 59.2249 79.6272C59.3362 79.5971 59.4487 79.5646 59.5619 79.5278C61.6773 78.8402 63.9194 76.9074 64.8965 74.9329C65.2449 74.2247 65.1676 73.1412 64.7019 72.2387C64.3745 71.604 63.9277 71.1949 63.4717 71.1177C62.3925 70.9345 61.2869 71.0238 60.1902 71.3802L60.1921 71.3796Z" fill="#22355C"/>
<path id="Vector_3" d="M120.443 50.0519C119.55 50.342 118.579 50.1867 117.774 49.6239C117.609 49.5088 117.445 49.3895 117.282 49.272C116.928 49.0156 116.561 48.7511 116.19 48.5245C114.654 47.588 113.425 47.3479 112.208 47.7436C111.891 47.8467 111.564 47.9957 111.235 48.1898C110.663 48.6415 110.117 48.9552 109.612 49.1192C108.445 49.4986 107.462 49.1257 106.768 48.0437C106.327 47.3565 106.197 46.6212 106.392 45.916C106.598 45.1729 107.155 44.5372 107.963 44.122C108.465 43.8656 108.907 43.5858 109.335 43.3168C109.977 42.9113 110.639 42.493 111.48 42.1709C111.8 42.0201 112.129 41.8907 112.456 41.7846C115.553 40.7779 118.684 41.8394 121.045 44.6965C121.11 44.775 121.176 44.853 121.243 44.9327C121.641 45.4046 122.091 45.9384 122.329 46.5495C122.741 47.6155 122.25 48.965 121.188 49.6877C120.958 49.8438 120.709 49.9674 120.447 50.0525L120.443 50.0519Z" fill="#22355C"/>
<path id="Vector_4" d="M124.255 44.5853C123.192 44.9309 122.235 44.6327 121.493 43.7204L121.456 43.6756L121.434 43.6217C121.243 43.1478 121.279 42.5635 121.537 42.0188C121.936 41.1763 122.802 40.501 123.977 40.1192C124.014 40.1071 124.11 40.0758 124.11 40.0758L124.131 40.0691C125.515 39.8081 126.092 39.8112 126.678 40.8799C127.212 41.8554 126.926 42.974 125.981 43.5977C125.922 43.6371 125.854 43.6857 125.774 43.7422C125.419 43.9956 124.883 44.379 124.252 44.584L124.255 44.5853Z" fill="#22355C"/>
<path id="Vector_5" d="M106.965 43.2037C106.062 43.4974 105.037 43.1989 104.472 42.4769C104.114 42.0169 103.632 41.2861 103.376 40.4047C103.004 39.1225 103.66 37.8514 104.902 37.4479C104.987 37.4201 105.074 37.3979 105.162 37.3775C106.53 37.087 107.726 37.8925 108.067 39.3348C108.09 39.429 108.107 39.5251 108.121 39.6058L108.129 39.6578L108.306 40.2014C108.677 41.3559 108.334 42.4279 107.41 43.0003C107.276 43.0846 107.126 43.1537 106.968 43.2049L106.965 43.2037Z" fill="#22355C"/>
<path id="Vector_6" d="M119.679 41.5607C119.408 41.6487 119.136 41.6805 118.873 41.6561C118.148 41.5851 117.297 41.0434 116.976 40.4454C116.568 39.6905 116.887 38.5757 116.993 38.2528C117.171 37.7138 117.555 37.2802 117.926 36.8613C117.992 36.787 118.058 36.7109 118.122 36.6372C118.402 36.3108 118.755 36.0721 119.143 35.946C120.31 35.5666 121.54 36.2267 121.941 37.4468C122.156 38.1018 122.043 38.9364 121.634 39.7353C121.174 40.6301 120.444 41.3122 119.681 41.56L119.679 41.5607Z" fill="#22355C"/>
<path id="Vector_7" d="M113.101 40.9964C111.952 41.3697 110.648 40.7093 110.25 39.5553C109.756 38.116 110.668 35.8154 111.904 35.3831L111.954 35.3669C113.121 34.9875 114.358 35.625 114.769 36.8176C115.285 38.3169 114.42 40.5351 113.145 40.9819L113.101 40.9964Z" fill="#22355C"/>
<path id="Vector_8" d="M88.8456 75.4554C88.4744 75.576 88.0884 75.6446 87.6956 75.6606C87.0049 75.6881 86.4256 75.6795 85.7975 75.3252L85.7742 75.3105C85.7326 75.2834 85.691 75.2563 85.6475 75.2298C85.0615 74.8599 84.4572 74.4776 83.6374 71.6272C83.5013 71.9029 83.3582 72.2012 83.2119 72.5087C82.2228 74.5785 80.9941 77.1546 79.3796 77.6793C79.3388 77.6926 79.2999 77.7053 79.2578 77.7148C76.855 78.3578 73.6734 77.8609 72.627 74.3451C71.6678 71.0973 71.8701 67.8944 73.1943 65.3279C75.1459 61.4914 76.5859 60.6132 77.6214 60.2767C77.7624 60.2308 77.8929 60.1966 78.0116 60.1641L78.1191 60.1352C78.6743 59.9811 79.1682 60.0236 79.5867 60.2633C80.3949 60.7235 80.6672 61.7761 80.8307 62.4052C80.8597 62.5196 80.8852 62.6169 80.9096 62.6922C81.2111 63.6197 80.2946 64.9978 79.1358 66.741C77.8497 68.6738 76.3927 70.8631 76.7423 72.3617C76.8609 72.8653 77.1828 73.2623 77.7305 73.5776C77.7458 73.5869 77.7685 73.5998 77.8334 73.5787C78.9988 73.1999 81.2502 67.8304 82.3966 64.5339C82.4169 64.4826 82.445 64.3923 82.4864 64.261C83.592 60.8072 84.7065 58.9403 85.896 58.5536C86.3599 58.4029 87.07 58.4035 87.8129 59.2626C88.5169 60.0775 87.1829 65.1894 87.1713 65.2419C86.7582 66.761 86.7947 68.6659 87.2597 70.0965C87.2925 70.1976 87.4266 70.5154 87.7903 70.3972C88.1818 70.2699 88.5139 69.3031 88.975 67.9633C89.4946 66.4563 90.205 64.3939 91.5337 61.8158L91.5437 61.7963L91.5563 61.778C94.5618 57.3208 95.6783 56.4888 96.3742 56.2626C96.9327 56.0811 97.2976 56.3137 97.5389 56.4688C97.7379 56.595 97.7821 56.6111 97.8693 56.5828C97.9918 56.543 98.3647 56.4217 98.5389 56.7367C98.7264 57.0737 98.4752 57.2792 97.8092 57.8308C97.4336 58.1397 96.5568 58.8633 96.4936 59.1234C96.3583 59.673 96.2134 60.313 96.0465 61.0556C94.955 65.9222 93.1302 74.0688 88.8492 75.4603L88.8456 75.4554Z" fill="#22355C"/>
<path id="Vector_9" d="M99.5625 72.7884C96.4005 73.8161 93.9913 71.5108 93.0058 68.7691C91.864 65.5909 91.9694 62.1088 93.2859 59.4555C94.4159 57.1815 96.4184 55.5215 99.0775 54.6571C99.6138 54.4828 100.184 54.338 100.775 54.2251L100.892 54.2036C102.178 53.958 104.123 53.5857 104.73 55.4534C105.273 57.1246 105.048 60.7431 97.5192 66.2746L97.6682 66.9288C97.7738 67.3736 97.9888 67.6815 98.3215 67.8657C98.7916 68.1251 99.5202 68.1259 100.318 67.8665C102.786 67.0643 105.045 63.6559 106.538 61.4C106.692 61.1672 106.841 60.9441 106.982 60.7338L107.322 60.2273L108.595 62.307L108.519 62.4882C106.764 66.6324 103.49 71.5158 99.5656 72.7914L99.5625 72.7884ZM100.679 57.6027C99.266 58.5067 97.6864 60.5714 97.2013 63.1758C99.738 60.9564 100.85 58.1523 100.729 57.6921C100.713 57.6425 100.691 57.6149 100.679 57.6027Z" fill="#22355C"/>
<path id="Vector_10" d="M116.455 66.1058C114.514 66.7367 112.786 65.3714 112.238 63.6874C111.424 61.1824 112.448 58.6524 113.384 56.4113L110.471 58.1175C109.911 60.1555 108.965 61.8984 108.049 63.5871C107.787 64.0701 107.515 64.5707 107.258 65.0684L106.829 65.9004L105.76 62.6094L105.861 62.4545C106.442 61.5713 106.918 60.5739 107.338 59.3489C106.693 59.3253 106.298 58.9458 106.037 58.1432C105.04 55.0745 108.309 50.6698 109.491 50.2856C110.083 50.0932 110.739 50.4078 110.923 50.9734C111 51.2103 111.036 51.4465 111.046 51.6684C111.611 51.3915 112.134 51.1322 112.609 50.8965C114.077 50.1675 115.137 49.6403 115.866 49.4033C116.243 49.2809 116.72 49.1662 117.06 49.3786C117.958 49.97 118.51 50.5745 118.855 51.3395L118.861 51.3597L118.87 51.3793C119.318 52.7585 118.688 53.7369 118.023 54.7713L117.981 54.8378C117.476 55.662 115.853 58.4919 116.363 60.0603C116.5 60.4809 117.075 60.6533 117.479 60.5218C118.673 60.134 119.958 58.0533 120.894 56.5347C121.186 56.0622 121.461 55.6153 121.698 55.2783L122.059 54.7652L123.21 56.856L123.133 57.0292C122.384 58.7309 119.057 65.2602 116.451 66.107L116.455 66.1058Z" fill="#22355C"/>
</g>
</svg>
